# xmcd CD database file
#
# Track frame offsets:
#	150
#	17050
#	30801
#	48274
#	65469
#	79631
#	91066
#	102966
#	116407
#	130793
#	145867
#	162618
#	177119
#
# Disc length: 2568 seconds
#
# Revision: 0
# Processed by: cddbd v1.5PL3 Copyright (c) Steve Scherf et al.
# Submitted via: CDex 1.51
#
DISCID=980a060d
DTITLE=Martijn and Esther - Squeeze Me In
DYEAR=2004
DGENRE=Country
TTITLE0=Watch Me
TTITLE1=Guitars, Cadillacs
TTITLE2=Tell Me About It
TTITLE3=Wild As The Wind
TTITLE4=Big Deal
TTITLE5=Alright Already
TTITLE6=That's What I Like About You
TTITLE7=Here Comes My Baby
TTITLE8=I Feel Lucky
TTITLE9=Still In Love With You
TTITLE10=Long Time Gone
TTITLE11=Hearts Are Gonna Roll
TTITLE12=Squeeze Me In
EXTD=YEAR: 2004
EXTT0=
EXTT1=
EXTT2=
EXTT3=
EXTT4=
EXTT5=
EXTT6=
EXTT7=
EXTT8=
EXTT9=
EXTT10=
EXTT11=
EXTT12=
PLAYORDER=
